<?xml version="1.0" standalone="no"?>
<!DOCTYPE svg PUBLIC "-//W3C//DTD SVG 20010904//EN"
 "http://www.w3.org/TR/2001/REC-SVG-20010904/DTD/svg10.dtd">
<svg version="1.0" xmlns="http://www.w3.org/2000/svg"
 width="396.000000pt" height="396.000000pt" viewBox="0 0 396.000000 396.000000"
 preserveAspectRatio="xMidYMid meet">
<metadata>
Created by potrace 1.11, written by Peter Selinger 2001-2013
</metadata>
<g transform="translate(0.000000,396.000000) scale(0.100000,-0.100000)"
fill="#000000" stroke="none">
<path d="M1947 3645 c-4 -8 -13 -15 -21 -15 -23 0 -95 -89 -130 -158 l-31 -64
-40 6 c-61 10 -134 36 -173 62 -19 13 -38 24 -42 24 -5 0 -14 24 -20 53 -7 28
-17 57 -22 63 -13 18 -45 5 -73 -28 l-25 -30 -43 17 c-23 9 -57 26 -75 37 -49
30 -58 14 -34 -63 39 -126 38 -141 -5 -216 -63 -111 -76 -157 -94 -335 -10
-112 -2 -251 18 -306 4 -9 -20 10 -53 43 -33 33 -67 65 -76 72 -26 20 -71 180
-72 260 -1 55 -4 73 -15 73 -26 0 -161 -157 -161 -188 0 -4 -18 -43 -41 -87
-69 -135 -109 -330 -109 -532 0 -106 16 -235 34 -278 39 -92 39 -91 19 -74
-30 26 -233 139 -285 159 -81 30 -59 14 58 -45 21 -10 46 -24 54 -31 8 -6 40
-24 70 -40 113 -60 290 -214 290 -254 0 -10 6 -23 14 -29 7 -6 16 -33 19 -59
2 -26 8 -55 12 -64 5 -14 -2 -17 -47 -23 -74 -9 -170 9 -242 46 -155 79 -143
69 -170 142 -10 26 -22 47 -27 47 -5 0 -9 -2 -9 -4 0 -4 63 -179 75 -208 5
-12 3 -18 -5 -18 -31 0 -84 -56 -111 -116 -32 -71 -34 -89 -17 -146 13 -44 97
-123 144 -134 43 -10 47 -14 31 -32 -23 -26 -57 -136 -57 -184 0 -41 25 -102
75 -183 21 -35 132 -134 197 -176 42 -28 169 -68 214 -69 16 0 23 -8 27 -29 9
-45 93 -107 157 -116 27 -4 52 -11 56 -16 9 -15 132 -10 172 7 49 20 99 69
112 110 10 28 19 35 63 48 29 8 72 18 97 21 65 10 204 56 232 77 20 15 21 19
8 28 -12 8 -11 10 6 10 35 0 37 13 4 40 l-31 26 62 52 c65 56 82 60 87 22 6
-36 51 -98 72 -100 3 0 5 53 5 118 0 107 -2 120 -23 146 -12 16 -21 30 -20 31
2 2 56 6 120 10 114 7 116 6 111 -13 -3 -11 -16 -30 -29 -43 -19 -18 -24 -33
-24 -71 0 -52 -36 -129 -68 -147 -25 -14 -8 -24 28 -16 19 4 34 15 37 26 3 10
14 21 24 24 10 4 24 18 31 32 21 42 50 46 95 13 21 -16 44 -30 51 -30 19 0 15
-13 -15 -48 -27 -31 -29 -31 -72 -21 -64 15 -120 -5 -390 -139 -60 -29 -145
-124 -94 -105 11 4 14 3 9 -5 -11 -18 27 -28 129 -36 50 -3 122 -15 160 -26
275 -77 670 -38 929 90 58 28 120 61 138 73 18 12 46 29 62 37 30 16 96 104
96 130 0 8 11 36 24 62 13 25 28 61 34 78 10 27 15 30 34 24 37 -12 101 -5
128 15 36 26 87 103 100 150 11 43 8 82 -15 164 -20 70 -45 106 -97 141 l-46
31 26 60 c26 58 27 67 27 245 l0 185 -49 98 c-84 165 -222 293 -313 289 -40
-1 -43 0 -44 26 -4 85 2 152 17 187 32 77 57 523 35 635 -18 90 -76 205 -88
173 -2 -7 -15 -28 -29 -48 -13 -20 -24 -38 -24 -41 0 -3 -4 -10 -10 -17 -107
-130 -135 -166 -149 -187 -9 -14 -24 -34 -33 -44 -10 -11 -18 -23 -18 -26 0
-3 -17 -24 -37 -46 -20 -21 -33 -34 -30 -28 4 7 -2 38 -13 70 -24 74 -24 71 3
79 27 9 77 54 77 71 0 6 7 18 16 25 19 15 74 129 74 151 0 8 4 18 9 24 17 17
82 226 79 253 -4 34 -14 32 -163 -33 -154 -68 -200 -84 -256 -92 l-46 -6 -26
45 c-29 49 -111 128 -159 152 -17 8 -32 14 -34 13 -1 -2 -7 -52 -14 -112 -13
-122 -23 -151 -48 -141 -46 19 -82 25 -164 26 -81 2 -91 4 -108 27 -20 25 -29
60 -39 152 -4 39 -11 56 -22 58 -9 2 -19 -4 -22 -13z m53 -197 c0 -10 10 -22
22 -27 22 -8 22 -8 -3 -14 -13 -3 -35 -4 -47 -1 -13 4 -40 -3 -69 -19 l-48
-25 -32 22 -31 22 30 64 c17 35 51 83 76 108 l45 45 28 -78 c16 -44 29 -87 29
-97z m456 120 c49 -41 109 -117 104 -135 -1 -4 -41 -22 -89 -38 -67 -23 -91
-28 -107 -20 -21 10 -21 11 -3 75 10 36 18 86 19 113 0 28 5 47 11 47 7 0 35
-19 65 -42z m-1121 -18 c50 -24 98 -43 107 -44 10 -1 28 -10 40 -21 13 -10 24
-18 26 -17 1 1 28 -11 60 -27 31 -15 89 -34 127 -40 39 -7 89 -20 113 -29 38
-15 42 -20 37 -42 -5 -24 -5 -24 10 -6 8 11 15 16 15 11 0 -5 7 0 15 12 16 23
47 34 65 23 7 -5 31 -1 54 7 87 32 93 32 248 8 16 -2 44 -12 64 -21 l37 -18
-29 -24 c-28 -23 -29 -24 -4 -17 14 4 37 16 52 27 27 19 143 60 208 73 19 4
73 18 120 32 47 14 102 30 122 35 21 6 36 14 33 18 -6 9 165 83 173 76 5 -5
-35 -139 -50 -166 -13 -25 -78 -199 -78 -210 0 -5 -4 -10 -8 -10 -4 0 -16 -13
-25 -30 -25 -42 -76 -90 -96 -90 -9 0 -34 -9 -56 -20 -22 -11 -44 -20 -51 -20
-6 0 -17 -7 -24 -15 -7 -8 -21 -15 -32 -15 -10 0 -16 -4 -13 -10 3 -5 1 -11
-4 -11 -6 -1 -17 -2 -23 -3 -42 -7 -19 12 64 53 99 48 108 54 166 113 48 47
54 56 76 98 79 150 127 260 121 271 -4 5 -38 -22 -76 -60 -39 -39 -89 -78
-111 -88 -23 -10 -60 -28 -82 -40 -85 -46 -190 -95 -210 -98 -12 -1 -40 -8
-63 -14 -23 -6 -79 -13 -123 -15 -71 -3 -89 -8 -160 -45 -44 -22 -94 -41 -111
-41 -33 0 -35 10 -14 65 6 16 2 14 -23 -9 -29 -27 -35 -40 -47 -104 -2 -12
-14 -35 -25 -50 l-21 -27 21 -17 c47 -38 153 -49 245 -25 43 12 54 11 86 -5
20 -9 64 -45 97 -80 33 -34 63 -60 67 -56 8 8 -114 138 -130 138 -7 0 -19 7
-26 17 -13 15 -11 16 22 9 68 -12 146 -63 189 -123 13 -18 25 -31 28 -29 9 9
-30 66 -64 95 -32 25 -34 29 -13 24 13 -4 43 -17 65 -29 l42 -23 5 21 c6 21 7
21 25 5 24 -22 31 -21 25 3 -4 15 0 20 13 20 17 0 16 1 -2 14 -17 13 -17 16
-4 30 8 8 40 26 70 39 l56 25 16 -42 c29 -71 29 -109 -1 -154 -50 -76 -65
-107 -86 -173 -11 -36 -32 -80 -47 -98 -24 -27 -37 -33 -85 -38 -41 -5 -54 -3
-49 5 4 7 13 12 19 12 7 0 18 9 25 20 6 11 18 17 26 14 10 -4 16 5 21 28 4 18
14 42 21 53 8 11 14 32 14 47 0 18 4 26 13 22 8 -3 14 6 15 28 2 18 7 37 12
42 13 13 13 29 0 21 -5 -3 -10 -1 -10 6 0 15 -30 49 -43 49 -6 0 -2 -9 8 -20
10 -11 13 -20 7 -20 -17 0 -15 -25 3 -40 23 -19 19 -49 -5 -43 -15 4 -20 0
-20 -13 0 -29 -32 -104 -44 -104 -6 0 -19 -18 -28 -41 -12 -29 -22 -40 -35
-37 -10 1 -23 -1 -30 -5 -7 -4 -51 -13 -98 -19 -64 -8 -85 -14 -81 -24 4 -9
-8 -14 -42 -17 -42 -3 -40 -4 16 -5 34 -1 62 2 62 7 0 5 12 11 28 14 15 3 37
8 49 12 17 6 24 1 38 -29 10 -21 25 -36 35 -36 32 0 100 -29 158 -67 79 -52
102 -81 131 -164 19 -52 19 -54 0 -101 -10 -27 -19 -57 -19 -67 0 -10 -11 -26
-25 -35 -14 -9 -25 -23 -25 -31 0 -7 -3 -16 -8 -19 -4 -2 -6 13 -4 35 3 29 0
39 -11 39 -20 0 -67 -39 -67 -56 0 -8 -7 -17 -15 -20 -8 -4 -15 -12 -15 -19 0
-13 -82 -25 -166 -25 -36 0 -42 3 -37 16 3 9 1 19 -5 23 -7 4 -13 45 -14 106
-3 99 -15 127 -35 83 -14 -31 -6 -53 13 -37 21 17 17 -5 -6 -31 -25 -29 -25
-40 -1 -40 15 0 19 -10 24 -57 2 -32 3 -61 0 -65 -8 -15 -115 -8 -144 9 -25
15 -29 24 -29 59 0 22 -7 63 -15 90 -8 27 -15 50 -15 52 0 1 13 2 30 2 16 0
72 22 123 48 51 27 104 52 118 55 13 3 32 12 41 19 16 12 16 15 -2 53 -11 22
-19 46 -20 53 0 6 -7 12 -15 12 -19 0 -72 -26 -77 -37 -10 -25 -268 -154 -268
-135 0 5 -22 16 -50 26 l-50 18 60 65 c59 65 74 90 46 80 -19 -8 -159 12 -171
24 -6 6 0 18 18 35 44 40 36 46 -58 43 -95 -4 -101 0 -66 57 20 32 94 96 124
107 22 8 21 36 -2 66 l-19 24 -41 -21 c-23 -12 -55 -22 -71 -22 -17 0 -30 -5
-30 -11 0 -7 10 -9 25 -7 14 3 25 4 25 3 0 -1 -16 -20 -36 -41 -20 -21 -44
-56 -54 -79 l-17 -40 -7 82 c-4 46 -11 85 -15 87 -4 3 -24 -7 -45 -22 -31 -22
-39 -24 -46 -12 -6 8 -10 23 -10 33 0 9 -5 17 -11 17 -7 0 -10 17 -7 45 2 30
-1 45 -9 45 -9 0 -9 8 1 32 14 32 23 36 91 41 19 1 33 10 41 25 9 19 13 20 23
8 6 -7 20 -16 31 -19 21 -5 120 38 120 54 0 5 12 7 28 3 23 -6 25 -5 14 8 -16
20 -86 39 -132 35 -31 -2 -35 1 -38 25 -3 22 2 28 32 38 19 6 38 20 41 30 7
23 -4 88 -16 96 -5 3 -9 16 -9 29 0 28 -21 84 -26 70 -2 -5 2 -38 9 -72 15
-73 11 -143 -8 -143 -16 0 -29 94 -20 154 6 39 4 47 -19 67 -14 12 -53 33 -88
47 -35 14 -84 38 -109 54 -25 15 -49 28 -53 28 -14 0 -152 100 -180 130 -16
17 -31 29 -33 26 -5 -5 26 -93 59 -164 11 -26 21 -51 22 -57 1 -6 30 -69 66
-139 45 -90 76 -138 107 -166 23 -22 38 -40 33 -40 -17 0 -90 71 -145 140 -66
84 -101 173 -145 370 -6 25 -13 56 -15 68 -3 13 -2 22 2 19 4 -3 49 -24 98
-47z m130 3 c8 -33 6 -34 -38 -22 -36 10 -36 11 -21 33 19 30 50 24 59 -11z
m-190 -215 c4 -18 18 -53 31 -77 13 -24 24 -51 24 -60 0 -9 11 -29 25 -46 13
-16 32 -40 42 -53 10 -13 50 -56 90 -97 71 -73 102 -115 85 -115 -9 0 -62 -98
-62 -114 0 -4 8 -5 18 -2 15 5 17 0 14 -47 -4 -54 -16 -74 -65 -109 -24 -17
-29 -18 -42 -4 -25 25 -20 110 10 154 39 57 32 78 -14 45 -14 -9 -21 -11 -17
-5 21 34 3 122 -25 122 -9 0 -38 -50 -51 -85 -4 -11 -4 6 -1 38 3 36 2 57 -5
57 -20 0 -51 -52 -58 -96 -8 -52 -16 -56 -29 -12 -6 19 -18 34 -28 36 -16 3
-17 -2 -11 -55 4 -32 13 -68 21 -80 10 -14 11 -23 3 -28 -5 -3 -17 -23 -25
-43 -15 -34 -16 -35 -29 -16 -50 72 -44 422 10 582 23 70 62 142 76 142 3 0 9
-15 13 -32z m1909 -158 c27 -142 31 -251 13 -381 -9 -63 -18 -149 -21 -191 -4
-82 -23 -126 -77 -181 -22 -22 -46 -32 -118 -46 -103 -21 -146 -19 -199 9 -46
25 -122 98 -122 118 0 8 8 40 19 71 10 31 28 87 41 126 14 40 42 94 69 130 60
80 167 213 197 247 13 14 24 31 24 37 0 6 8 15 18 20 9 5 37 41 62 79 58 91
70 86 94 -38z m-2292 -122 c9 -7 21 -37 27 -66 15 -70 72 -202 88 -202 7 0 13
-4 13 -9 0 -4 19 -29 43 -54 64 -69 97 -118 97 -145 0 -22 -3 -23 -27 -17 -16
4 -44 11 -63 15 -19 4 -52 15 -72 24 -48 21 -48 21 -48 -11 0 -32 27 -181 36
-194 3 -5 -4 -9 -14 -9 -11 0 -65 -18 -120 -40 -54 -22 -108 -40 -118 -40 -16
0 -15 -3 6 -15 14 -8 51 -27 82 -41 l56 -27 -29 -58 c-34 -65 -73 -178 -65
-186 3 -3 21 4 41 16 l36 21 -3 -27 c-3 -24 -7 -28 -33 -26 -106 7 -147 44
-176 154 -41 157 -14 463 59 664 45 123 50 134 77 169 14 18 25 38 25 44 0 7
4 12 8 12 4 0 16 14 25 30 20 33 26 36 49 18z m1288 -2 c0 -3 -4 -8 -10 -11
-5 -3 -10 -1 -10 4 0 6 5 11 10 11 6 0 10 -2 10 -4z m-85 -16 c-3 -5 1 -10 10
-10 9 0 13 -4 10 -10 -3 -5 -2 -10 3 -10 5 0 14 -11 20 -25 12 -26 12 -26 -26
-19 -49 9 -51 10 -45 35 4 13 11 18 21 14 12 -4 12 -2 4 8 -7 8 -9 17 -5 20
10 10 15 8 8 -3z m-421 -75 c6 -27 6 -28 -8 -15 -14 14 -21 47 -16 80 2 15 10
-8 24 -65z m596 35 c-6 -11 -12 -20 -14 -20 -2 0 -2 9 1 20 3 11 9 20 15 20 5
0 4 -9 -2 -20z m-53 -27 c-3 -2 -16 -3 -29 0 l-23 4 23 8 c12 4 23 12 23 19 1
6 3 3 6 -7 3 -10 3 -21 0 -24z m-641 -4 c19 -22 19 -22 -3 -10 -13 6 -23 16
-23 21 0 15 5 12 26 -11z m184 -19 c-20 -13 -43 -13 -35 0 3 6 16 10 28 10 18
0 19 -2 7 -10z m830 -14 c0 -3 -4 -8 -10 -11 -5 -3 -10 -1 -10 4 0 6 5 11 10
11 6 0 10 -2 10 -4z m-1273 -60 c-10 -44 -5 -76 11 -76 5 0 21 26 36 58 25 54
26 51 6 -25 -4 -19 -4 -33 1 -33 5 0 9 1 9 3 0 1 7 20 15 42 l15 40 -7 -54
c-5 -47 -4 -53 10 -48 13 5 14 2 6 -16 -5 -12 -12 -29 -15 -38 -5 -13 -15 -16
-47 -12 -23 3 -48 10 -54 15 -9 7 -15 5 -19 -6 -16 -43 -55 10 -53 73 l1 36 9
-33 c8 -28 12 -32 24 -22 8 7 15 22 15 34 0 20 35 106 43 106 2 0 0 -20 -6
-44z m17 -196 c3 -8 19 -35 36 -60 16 -25 36 -60 44 -77 8 -18 19 -33 23 -33
4 0 22 13 38 28 33 30 183 132 195 132 4 0 11 -50 15 -110 l7 -111 52 5 c28 3
78 8 111 12 l60 7 -37 -41 c-21 -23 -38 -43 -38 -45 0 -1 12 -3 28 -4 15 0 57
-9 95 -18 l68 -17 -48 -57 c-26 -31 -52 -58 -56 -60 -5 -2 17 -28 47 -57 31
-30 56 -57 56 -61 0 -3 -41 -3 -90 0 l-91 5 26 -22 c14 -12 25 -25 25 -30 0
-4 8 -20 18 -34 10 -15 25 -45 34 -67 l15 -41 -26 1 c-14 0 -28 3 -31 6 -3 4
-16 9 -30 10 -25 4 -25 3 -30 -81 l-5 -85 -35 49 c-33 46 -35 47 -38 23 -2
-17 -8 -24 -17 -21 -9 4 -15 -8 -21 -38 l-7 -43 -30 64 c-24 51 -32 61 -37 46
-4 -11 -4 -34 1 -52 11 -52 -3 -39 -36 32 -16 36 -33 61 -37 57 -4 -4 -8 -43
-10 -87 -2 -53 -6 -73 -11 -60 -5 11 -17 43 -29 70 -11 28 -25 69 -31 93 -6
24 -19 48 -29 53 -10 5 -18 16 -18 24 0 8 -9 19 -19 25 -29 15 -35 12 -20 -7
13 -16 12 -17 -3 -4 -10 7 -16 17 -13 21 7 11 -50 51 -75 53 -11 1 -20 4 -20
7 0 4 -24 12 -52 19 -29 8 -59 18 -65 23 -7 6 -20 8 -28 4 -8 -3 -15 -1 -15 4
0 5 -10 12 -22 16 -13 4 -26 11 -30 17 -4 7 -12 6 -22 -3 -9 -7 -19 -10 -23
-6 -3 3 -1 6 6 6 7 0 6 9 -5 26 -11 17 -20 21 -24 14 -5 -7 -10 -2 -14 14 -3
14 -10 26 -15 26 -5 0 -7 14 -4 31 3 21 1 29 -6 24 -6 -3 -11 -13 -11 -21 0
-8 -7 -17 -15 -20 -8 -4 -15 -11 -15 -16 0 -6 8 -4 18 3 15 13 16 12 3 -3 -7
-10 -19 -18 -26 -18 -6 0 -20 -9 -30 -20 -18 -20 -18 -21 1 -14 15 5 16 4 4
-4 -8 -6 -17 -9 -20 -7 -3 2 -12 -6 -19 -17 -12 -19 -11 -20 6 -14 16 6 16 5
-1 -9 -21 -16 -36 -19 -36 -9 0 4 14 29 30 56 16 26 30 52 30 57 0 5 -22 14
-50 21 -63 15 -83 36 -43 46 58 14 203 76 203 88 0 6 -7 29 -15 51 -8 22 -14
61 -15 87 l0 48 33 -7 c17 -4 65 -22 106 -40 41 -19 79 -32 85 -30 6 3 18 33
25 68 8 35 23 83 34 106 17 35 23 40 38 30 10 -6 20 -18 23 -27z m574 2 c2
-12 -1 -22 -7 -22 -10 0 -15 14 -12 33 1 5 -3 6 -9 2 -6 -3 -8 -11 -5 -16 4
-5 2 -9 -4 -9 -19 0 -21 19 -4 29 24 14 37 9 41 -17z m509 -376 c-4 -9 -15
-12 -32 -8 l-26 5 22 24 c20 20 24 21 32 8 5 -9 6 -22 4 -29z m-22 -20 c42 -6
42 -6 20 -15 -12 -5 -26 -4 -34 3 -11 8 -13 8 -8 0 4 -7 -2 -10 -18 -6 -14 2
-28 9 -31 14 -9 14 18 29 31 18 6 -5 24 -11 40 -14z m968 -81 c83 -79 136
-167 177 -295 32 -97 28 -229 -10 -371 -10 -36 -12 -38 -36 -29 -58 23 -93 82
-124 210 -12 52 -31 119 -41 148 -10 29 -19 66 -19 81 0 16 -7 35 -16 42 -15
12 -16 9 -12 -36 6 -53 -13 -113 -40 -130 -67 -43 -73 -45 -105 -28 -54 27
-282 31 -237 3 8 -5 37 -12 65 -16 44 -6 148 -49 179 -75 72 -60 136 -123 166
-164 45 -60 74 -115 61 -115 -20 0 -91 -82 -122 -141 -43 -83 -44 -160 -4
-240 32 -62 56 -85 110 -101 22 -6 41 -13 43 -14 2 -1 -4 -18 -12 -38 -16 -38
-36 -48 -36 -18 0 31 -58 65 -118 70 -53 5 -53 4 -102 -46 -57 -60 -71 -104
-49 -166 17 -49 54 -70 121 -71 25 0 46 -1 45 -1 -1 -1 -32 -18 -69 -38 -38
-20 -97 -51 -132 -70 -100 -54 -126 -58 -390 -58 -284 0 -433 8 -536 28 -41 8
-107 16 -147 17 -43 1 -72 6 -70 12 2 5 75 45 162 89 141 69 167 79 220 80 33
1 66 -2 72 -7 13 -10 48 21 93 82 14 19 35 44 48 56 12 12 22 27 22 32 0 5 20
24 45 43 25 19 45 37 45 42 0 4 6 8 14 8 7 0 20 8 27 17 23 27 149 105 162
100 10 -4 12 18 9 87 -5 127 17 192 71 211 68 23 73 34 33 71 -35 33 -40 44
-50 119 -5 33 -2 43 17 57 32 25 14 33 -33 14 -53 -21 -105 -20 -155 3 -56 25
-74 49 -68 89 4 26 10 32 29 32 14 0 27 7 31 15 3 9 18 22 34 31 39 20 38 44
-1 44 -35 0 -37 8 -10 60 11 22 20 46 20 55 0 8 4 15 8 15 4 0 25 15 45 33 25
24 33 37 26 44 -8 8 -7 13 2 18 8 5 10 4 5 -3 -4 -7 -1 -12 7 -12 7 0 42 27
77 61 74 71 140 107 223 120 33 6 69 16 80 24 18 12 25 11 59 -8 21 -12 62
-44 91 -72z m-2396 -41 c-3 -3 -12 -4 -19 -1 -8 3 -5 6 6 6 11 1 17 -2 13 -5z
m69 -80 c43 -39 90 -63 177 -90 31 -10 57 -21 57 -26 0 -4 6 -8 13 -8 7 0 37
-7 65 -15 50 -15 52 -17 52 -51 0 -20 -8 -49 -17 -65 -20 -34 -48 -37 -146
-14 -95 22 -159 55 -227 117 -51 48 -60 61 -60 90 0 45 19 98 34 98 7 0 30
-16 52 -36z m-163 -7 c-3 -5 1 -13 8 -18 11 -7 11 -9 1 -9 -7 0 -15 7 -18 15
-4 8 -10 12 -15 9 -13 -8 -11 5 4 20 13 15 31 0 20 -17z m282 23 c3 -6 -1 -7
-9 -4 -18 7 -21 14 -7 14 6 0 13 -4 16 -10z m925 -40 c12 -22 13 -90 2 -106
-4 -6 -25 -10 -47 -9 -33 2 -44 8 -62 35 -25 37 -30 55 -10 44 6 -4 -4 7 -23
24 l-35 30 82 1 c71 0 84 -2 93 -19z m-699 -57 c13 -16 12 -17 -3 -4 -10 7
-18 15 -18 17 0 8 8 3 21 -13z m1273 -33 c-7 -59 7 -66 36 -17 11 17 22 37 24
42 2 6 6 7 10 4 3 -3 -3 -27 -15 -53 -25 -58 -23 -91 8 -90 21 0 20 -2 -12
-33 -20 -19 -44 -33 -59 -33 -22 0 -27 8 -47 69 -19 58 -20 72 -10 85 7 9 17
13 22 10 5 -3 16 11 26 30 9 20 18 36 20 36 2 0 0 -22 -3 -50z m-1713 -37 c8
-9 9 -14 3 -10 -20 12 -8 -127 13 -159 16 -25 16 -27 1 -22 -9 4 -19 2 -21 -5
-6 -17 -33 10 -42 43 l-8 25 22 -20 22 -19 -8 29 c-9 35 -8 155 2 155 2 0 9
-8 16 -17z m1089 -11 c0 -5 -7 -9 -15 -9 -8 0 -15 4 -15 9 0 4 7 8 15 8 8 0
15 -4 15 -8z m49 -31 c-6 -2 -18 4 -27 13 -15 15 -15 15 10 4 15 -7 23 -15 17
-17z m96 19 c11 -5 16 -9 10 -10 -5 -1 -18 -3 -27 -5 -9 -2 -22 3 -29 11 -9
11 -8 14 7 13 11 0 28 -4 39 -9z m365 -12 c0 -4 -3 -8 -7 -9 -5 0 -17 -2 -28
-5 -44 -9 -211 -12 -230 -4 -15 6 -5 9 35 10 85 3 163 10 169 15 7 8 61 2 61
-7z m-479 -35 c27 -30 29 -50 8 -74 -10 -12 -19 -19 -19 -15 0 3 -10 0 -23 -8
-30 -20 -67 -16 -83 10 -31 47 25 102 75 74 12 -6 21 -15 21 -20 0 -24 -15
-40 -37 -40 -15 0 -23 5 -20 13 2 6 11 11 18 9 11 -3 12 -1 2 9 -10 10 -16 10
-24 2 -17 -17 -3 -43 24 -43 49 0 64 49 23 75 -34 23 -75 15 -99 -17 -18 -24
-19 -30 -6 -60 8 -18 13 -36 12 -39 -1 -4 7 -5 17 -2 11 3 20 0 20 -6 0 -15
-24 -14 -65 3 -32 14 -35 19 -35 56 0 33 6 48 31 72 27 28 34 30 75 24 31 -4
43 -2 38 5 -10 17 28 -6 47 -28z m-1099 -5 c-7 -7 -12 -8 -12 -2 0 14 12 26
19 19 2 -3 -1 -11 -7 -17z m241 -91 c6 4 7 1 3 -6 -5 -7 -18 -16 -30 -21 -18
-8 -17 -9 12 -9 30 -1 32 -3 22 -22 -11 -20 -11 -20 14 -4 26 18 29 15 27 -20
-1 -11 7 -34 18 -51 15 -24 29 -34 60 -39 22 -4 49 -4 60 0 22 7 61 63 61 88
0 27 26 27 28 0 3 -33 -29 -76 -70 -96 -18 -9 -26 -17 -18 -17 43 0 130 96
121 135 -1 6 3 5 10 -2 10 -10 10 -24 0 -68 -7 -31 -10 -59 -6 -63 3 -3 25 15
48 41 45 51 63 59 54 27 -3 -11 -1 -18 4 -14 5 3 9 1 9 -4 0 -5 -11 -14 -25
-20 -14 -6 -25 -16 -25 -22 0 -16 13 -12 43 15 29 27 36 70 17 106 -8 13 -7
19 0 19 6 0 8 6 5 13 -4 6 3 1 14 -12 15 -16 22 -19 25 -10 2 8 6 21 9 29 3
11 8 7 17 -12 11 -24 10 -34 -6 -70 -24 -53 -61 -98 -81 -98 -23 0 -105 -44
-137 -73 -30 -28 -32 -28 -141 -12 -22 4 -26 2 -15 -5 8 -5 35 -10 60 -10 54
0 44 -15 -20 -29 -40 -9 -49 -8 -75 11 -16 11 -24 15 -17 7 23 -25 12 -29 -70
-29 -99 1 -122 10 -185 73 -91 89 -89 87 -62 80 27 -7 20 5 -13 21 -29 15 -39
52 -12 42 14 -4 12 0 -6 15 -13 11 -26 34 -28 50 -3 32 8 38 28 14 7 -8 18
-15 24 -14 7 0 6 2 -1 6 -23 9 -14 21 20 28 17 4 40 14 49 22 16 14 17 14 13
-6 -3 -15 0 -21 8 -18 13 4 14 26 3 75 l-8 33 78 -40 c42 -22 82 -37 87 -34z
m-208 5 c-3 -3 -11 0 -18 7 -9 10 -8 11 6 5 10 -3 15 -9 12 -12z m1072 -28
c-3 -3 -12 -4 -19 -1 -8 3 -5 6 6 6 11 1 17 -2 13 -5z m-57 -8 c0 -2 -7 -7
-16 -10 -8 -3 -12 -2 -9 4 6 10 25 14 25 6z m-685 -16 c-3 -5 -11 -10 -16 -10
-6 0 -7 5 -4 10 3 6 11 10 16 10 6 0 7 -4 4 -10z m1255 -62 c-50 -147 -93
-278 -106 -323 -8 -27 -20 -63 -28 -80 -8 -16 -17 -55 -21 -85 -4 -30 -13 -68
-20 -85 -8 -16 -15 -41 -17 -55 -2 -19 -10 -26 -31 -28 -15 -2 -25 -8 -21 -13
3 -6 -3 -5 -15 3 -12 7 -21 17 -21 23 0 5 -2 100 -5 210 -4 157 -2 208 9 235
8 19 25 68 38 108 25 78 22 76 108 87 34 4 107 31 146 54 1 1 -6 -23 -16 -51z
m-953 27 c0 -8 -4 -12 -9 -9 -5 3 -6 10 -3 15 9 13 12 11 12 -6z m-53 -11 c5
-13 -27 -74 -39 -74 -4 0 3 53 11 78 5 17 21 15 28 -4z m-253 -24 c6 0 7 5 4
11 -4 6 9 0 28 -12 19 -13 33 -28 30 -32 -3 -5 -9 -3 -14 4 -6 10 -9 11 -9 2
0 -7 -8 -13 -17 -13 -25 0 -53 29 -45 48 3 10 7 12 10 4 2 -7 8 -12 13 -12z
m1019 -25 c0 -8 -4 -15 -10 -15 -5 0 -10 -13 -10 -29 0 -16 -14 -60 -32 -98
-31 -66 -32 -71 -30 -193 1 -68 5 -133 8 -144 6 -17 3 -18 -36 -12 -23 4 -56
14 -74 23 -17 9 -36 18 -43 19 -38 7 -138 108 -170 172 l-19 40 34 58 c19 33
39 71 44 87 8 20 17 27 37 27 15 0 45 9 66 21 22 12 62 22 89 24 27 2 56 10
64 19 21 21 82 22 82 1z m284 -94 c9 -10 13 -21 9 -26 -5 -4 0 -5 10 -2 35 13
96 19 122 13 23 -6 25 -11 25 -62 0 -30 5 -64 10 -75 7 -13 7 -19 0 -19 -5 0
-11 6 -11 13 -1 6 -5 -24 -9 -68 -9 -93 -35 -153 -91 -207 -28 -27 -45 -37
-61 -34 -13 3 -31 5 -40 5 -10 1 -29 19 -44 40 -22 34 -25 47 -21 93 10 98 15
125 31 157 14 27 15 31 2 31 -21 0 -32 -24 -61 -136 -14 -55 -33 -106 -41
-114 -15 -14 -16 -12 -11 20 8 58 16 86 38 137 22 50 79 218 79 232 0 5 7 26
17 47 l16 39 7 -33 c4 -18 15 -41 24 -51z m-1975 0 c50 -39 71 -85 71 -156 0
-69 0 -69 -61 -118 -57 -46 -86 -47 -126 -4 -43 45 -53 69 -53 122 0 66 23
105 61 105 73 0 122 -82 65 -108 -22 -10 -26 -8 -31 9 -9 26 -41 21 -37 -6 5
-33 33 -47 77 -40 49 7 65 27 65 80 0 45 -12 61 -68 90 -43 21 -108 13 -117
-16 -4 -10 -10 -19 -14 -19 -15 0 -31 -52 -31 -104 0 -46 5 -60 36 -100 l36
-47 -39 20 c-49 25 -99 80 -107 119 -6 26 20 118 42 147 50 67 162 80 231 26z
m1301 -47 c-12 -27 -24 -51 -28 -54 -4 -3 -13 -16 -20 -30 -7 -14 -26 -43 -42
-65 -17 -22 -38 -58 -49 -81 -48 -105 -205 -190 -254 -136 -36 40 -27 114 18
152 8 7 13 16 10 20 -3 5 0 12 6 16 8 5 10 2 4 -7 -4 -8 6 1 22 19 16 17 34
32 41 32 8 0 10 5 6 12 -4 7 -3 8 5 4 6 -4 17 -3 24 2 7 6 29 13 51 17 25 5
52 21 75 44 40 40 91 76 91 64 0 -5 -9 -23 -20 -41 -11 -18 -20 -35 -20 -38 0
-12 28 23 34 44 8 24 56 85 62 79 3 -2 -5 -26 -16 -53z m-110 -9 c-30 -19 -73
-40 -95 -46 -22 -6 -78 -24 -125 -41 -103 -38 -173 -48 -164 -25 3 9 28 19 67
26 34 6 84 22 112 35 28 14 82 32 120 41 38 9 80 23 94 30 51 28 45 14 -9 -20z
m-718 -73 c48 -23 93 -42 100 -42 7 -1 2 -7 -12 -14 -14 -8 -28 -12 -32 -10
-10 7 -139 -48 -178 -76 -77 -55 -77 -58 8 -54 65 3 86 -1 137 -22 107 -46
129 -58 182 -104 28 -25 77 -65 108 -89 30 -24 53 -46 50 -49 -3 -3 3 -11 13
-18 14 -10 35 -8 107 7 50 10 98 16 108 13 31 -10 18 -35 -30 -56 l-47 -21
-38 22 c-47 27 -69 28 -43 1 19 -18 87 -57 233 -131 62 -32 72 -42 51 -54 -6
-4 -8 -13 -5 -20 6 -16 -80 -55 -123 -55 -17 0 -48 -6 -68 -14 -31 -12 -131
-36 -148 -36 -3 0 -5 20 -5 44 0 104 -64 192 -161 220 -66 20 -133 20 -167 2
-15 -8 -50 -22 -78 -31 -69 -21 -109 -75 -119 -162 l-7 -62 -51 6 c-62 7 -137
35 -192 71 -62 40 -148 133 -185 198 -29 51 -33 68 -33 131 0 59 5 81 29 130
27 54 32 58 70 63 29 4 56 19 93 50 60 51 71 67 71 108 0 24 7 32 42 48 61 28
158 52 198 50 19 -1 74 -21 122 -44z m2396 -8 c55 -18 82 -47 108 -116 45
-122 42 -165 -17 -244 -41 -56 -74 -81 -83 -65 -4 5 -35 26 -71 46 -55 30 -66
41 -76 75 -10 34 -9 50 6 99 16 53 22 60 61 80 56 26 66 26 91 -1 44 -49 35
-116 -20 -145 -25 -12 -31 -13 -38 -1 -13 19 -6 53 10 53 18 0 26 21 11 30
-36 22 -68 -31 -49 -82 18 -47 43 -54 79 -23 13 11 27 20 31 20 14 0 31 70 24
103 -12 59 -16 66 -51 87 -34 22 -35 22 -85 4 -64 -23 -91 -55 -108 -126 -24
-98 8 -170 93 -209 l41 -19 -34 5 c-88 13 -110 25 -143 73 -30 43 -32 54 -33
123 0 59 4 81 18 96 9 11 17 24 17 29 0 19 63 85 99 103 46 24 58 24 119 5z
m-2083 -84 c-6 -9 38 -15 73 -11 20 3 10 -33 -10 -37 -20 -4 -80 37 -72 50 3
4 7 8 10 8 3 0 2 -4 -1 -10z m-10 -45 c27 -25 54 -45 60 -45 6 0 12 -19 14
-42 1 -33 10 -51 34 -76 34 -35 30 -35 132 -20 17 2 21 -4 23 -35 3 -31 -2
-42 -30 -67 -28 -26 -40 -30 -88 -30 -50 1 -58 4 -90 36 -19 20 -55 50 -79 67
-24 16 -61 47 -82 67 -21 20 -56 45 -78 55 -23 10 -41 21 -41 25 0 25 122 109
160 110 8 0 37 -20 65 -45z m463 -27 c-6 -16 -55 -34 -65 -25 -9 10 27 36 50
37 11 0 17 -5 15 -12z m56 -71 c4 -23 16 -58 27 -76 16 -27 18 -36 7 -42 -7
-5 -16 -9 -20 -9 -9 0 -9 0 -56 -11 -29 -6 -34 -4 -48 22 -8 16 -18 29 -23 29
-9 0 -41 71 -41 91 0 6 6 6 19 0 24 -14 88 4 103 29 16 26 25 18 32 -33z
m-174 -27 c0 -5 -5 -10 -11 -10 -5 0 -7 5 -4 10 3 6 8 10 11 10 2 0 4 -4 4
-10z m280 -191 c10 -30 10 -46 -1 -83 -7 -24 -17 -42 -21 -40 -5 3 -6 13 -3
22 6 21 -21 40 -52 37 -12 0 -45 -25 -74 -53 -47 -47 -89 -67 -89 -43 0 5 19
32 43 60 27 33 50 51 64 51 38 0 85 51 87 93 1 36 1 37 18 15 9 -12 22 -39 28
-59z m423 41 c5 -18 3 -19 -9 -9 -8 7 -20 21 -25 31 -9 17 -8 18 9 9 11 -6 22
-20 25 -31z m-91 -70 c22 0 49 5 60 11 24 13 38 -1 38 -38 0 -27 -7 -29 -32
-6 -17 15 -18 15 -18 -5 0 -11 5 -24 11 -28 7 -4 7 -10 1 -16 -9 -9 -50 13
-107 56 -21 16 -59 -2 -83 -39 -22 -35 -42 -46 -42 -23 0 6 7 19 16 29 9 10
17 37 19 61 2 24 4 44 4 44 1 1 22 -9 48 -22 25 -13 64 -24 85 -24z m112 24
c3 -8 2 -12 -4 -9 -6 3 -10 10 -10 16 0 14 7 11 14 -7z m-699 -68 c-19 -37
-35 -63 -35 -58 0 13 21 59 45 99 33 54 27 30 -10 -41z m68 38 c10 -11 -12
-53 -44 -85 -17 -17 -33 -28 -36 -26 -2 3 5 25 18 49 32 64 46 78 62 62z
m-113 -65 c-15 -34 -20 -35 -51 -11 l-22 19 26 7 c15 3 32 16 39 29 11 20 13
20 16 4 2 -10 -2 -32 -8 -48z m1539 48 c13 -7 30 -29 37 -50 12 -34 11 -42 -8
-80 -12 -23 -22 -43 -23 -45 -1 -1 -16 1 -34 4 -44 9 -65 48 -45 86 15 28 38
36 49 18 3 -5 -1 -10 -9 -10 -18 0 -21 -16 -6 -25 17 -10 50 5 50 24 0 45 -57
55 -95 16 -44 -44 -29 -98 35 -124 l25 -10 -25 -2 c-91 -7 -134 11 -144 63 -7
34 19 85 63 126 27 25 90 30 130 9z m-1963 -87 c64 -21 108 -91 117 -186 5
-48 3 -65 -8 -74 -8 -7 -15 -18 -15 -24 0 -7 -15 -27 -34 -45 -26 -25 -47 -35
-98 -43 -83 -15 -113 -3 -152 58 -23 37 -28 53 -24 89 12 106 129 175 194 114
31 -30 34 -99 4 -129 -23 -23 -68 -26 -95 -6 -25 18 -13 46 20 46 29 0 33 15
8 28 -32 17 -83 -15 -83 -52 0 -29 56 -86 84 -86 78 0 128 53 130 137 1 50 -2
57 -31 83 -48 43 -93 48 -147 16 -98 -58 -124 -127 -90 -243 8 -28 -6 -29 -35
-4 -13 11 -27 21 -33 23 -13 5 -27 79 -28 143 0 59 27 111 64 121 13 3 27 12
30 20 3 8 16 14 28 14 13 1 34 7 47 14 24 13 79 8 147 -14z m724 -33 c0 -5 -4
-5 -10 -2 -5 3 -10 14 -10 23 0 15 2 15 10 2 5 -8 10 -19 10 -23z m141 10
c-10 -9 -11 -8 -5 6 3 10 9 15 12 12 3 -3 0 -11 -7 -18z"/>
<path d="M2147 3243 c-16 -8 -26 -17 -24 -19 6 -6 77 23 77 30 0 10 -23 5 -53
-11z"/>
<path d="M1730 2820 c-15 -16 -35 -30 -43 -30 -19 0 -40 -26 -32 -40 4 -6 25
-9 48 -7 35 3 43 8 46 28 4 31 14 37 53 31 23 -3 34 -12 42 -33 12 -32 21 -36
33 -15 7 12 25 10 116 -11 100 -23 110 -24 125 -10 14 15 14 18 -2 36 -13 15
-23 18 -35 11 -27 -14 -100 -1 -192 36 -48 19 -97 34 -109 34 -12 0 -35 -13
-50 -30z m140 -41 c0 -6 -4 -7 -10 -4 -5 3 -10 11 -10 16 0 6 5 7 10 4 6 -3
10 -11 10 -16z"/>
<path d="M2050 2480 c-21 -5 -22 -7 -7 -13 22 -8 129 2 142 14 10 10 -94 10
-135 -1z"/>
<path d="M2608 2273 c-31 -5 -36 -24 -13 -43 12 -10 15 -10 15 3 0 10 6 13 18
10 12 -3 18 2 19 16 1 12 -1 20 -5 20 -4 -1 -19 -4 -34 -6z"/>
<path d="M986 2101 c-4 -7 -5 -15 -2 -18 9 -9 19 4 14 18 -4 11 -6 11 -12 0z"/>
<path d="M1030 1985 c0 -21 41 -75 56 -75 19 0 28 20 15 33 -9 9 -11 8 -6 -5
5 -13 2 -18 -9 -18 -9 0 -16 8 -16 20 0 11 -5 19 -11 18 -18 -4 -22 19 -4 25
8 4 15 2 15 -3 0 -6 9 -5 20 2 26 17 55 -1 55 -33 0 -18 5 -23 20 -21 29 5 32
12 6 12 -12 0 -19 4 -16 10 3 5 1 19 -5 30 -9 16 -21 20 -65 20 -43 0 -55 -3
-55 -15z"/>
<path d="M1016 1616 c3 -9 11 -16 16 -16 13 0 5 23 -10 28 -7 2 -10 -2 -6 -12z"/>
<path d="M1022 1556 c6 -14 17 -27 24 -30 9 -3 5 7 -8 24 -26 36 -31 38 -16 6z"/>
<path d="M1310 1535 c26 -15 160 -21 160 -7 0 4 -26 7 -57 7 -32 0 -74 3 -93
7 -34 7 -35 7 -10 -7z"/>
<path d="M1090 1507 c40 -24 112 -31 135 -13 11 8 17 18 13 22 -4 4 -14 1 -23
-6 -15 -12 -56 -10 -125 5 l-25 6 25 -14z"/>
<path d="M1786 1316 c-20 -23 -36 -46 -36 -50 0 -4 -12 -23 -26 -42 -32 -42
-25 -44 16 -4 16 16 30 38 30 49 0 11 6 24 13 28 13 9 51 63 43 63 -3 0 -21
-20 -40 -44z"/>
<path d="M1659 1160 c-13 -10 -19 -19 -13 -20 6 0 19 9 29 20 23 26 14 26 -16
0z"/>
<path d="M858 1258 c-3 -7 -4 -23 -3 -35 1 -14 -4 -23 -12 -23 -7 0 -13 -4
-13 -10 0 -17 15 -11 36 13 22 24 27 67 8 67 -7 0 -14 -6 -16 -12z"/>
<path d="M273 2184 c-9 -4 -5 -21 12 -61 14 -30 25 -60 25 -66 0 -5 11 -33 24
-61 12 -28 33 -75 46 -103 45 -102 30 -44 -29 113 -33 88 -55 161 -50 162 5 2
7 8 3 13 -6 10 -12 10 -31 3z"/>
<path d="M247 1253 c-12 -12 -7 -36 10 -48 12 -9 16 -24 15 -48 -2 -31 3 -40
48 -77 50 -42 65 -38 40 11 -8 13 -7 25 0 39 14 27 3 83 -21 109 -19 20 -77
29 -92 14z m77 -56 c15 -32 16 -43 7 -64 -11 -24 -13 -25 -29 -10 -15 16 -15
18 3 31 20 14 19 15 -7 43 -32 34 -35 46 -10 41 9 -2 25 -20 36 -41z"/>
<path d="M3426 871 c-30 -31 -32 -67 -5 -84 43 -27 102 30 78 76 -12 21 -28
37 -40 37 -3 0 -18 -13 -33 -29z m54 -36 c0 -16 -30 -29 -42 -17 -6 6 -3 16 7
26 18 17 35 13 35 -9z"/>
<path d="M1529 463 c-23 -6 -38 -44 -28 -70 7 -18 16 -23 47 -23 43 0 62 14
62 46 0 33 -42 57 -81 47z m45 -39 c23 -9 1 -34 -30 -34 -26 0 -30 10 -12 28
14 14 20 15 42 6z"/>
</g>
</svg>
